<svg xmlns="http://www.w3.org/2000/svg" viewBox="0 0 128 128">
    <circle fill="#DE5833" cx="64" cy="64" r="64" />
    <path fill="#D5D7D8"
        d="M74.49 118.46c-2.16-4.15-4.13-7.88-5.45-10.49-4.22-8.46-8.47-20.38-6.54-28.07.35-1.4-3.98-51.74-7.04-53.37-3.4-1.81-10.79-4.2-14.62-4.84-2.67-.43-3.27.32-4.39.49 1.06.11 6.08 2.58 7.05 2.72-.97.66-3.84-.02-5.67.79-.93.43-1.62 2.01-1.6 2.75 5.23-.53 13.4-.01 18.24 2.13-3.85.44-9.7.93-12.21 2.25-7.3 3.84-10.52 12.83-8.6 23.61 1.78 10.03 9.25 44.8 12.44 60.07a55.27 55.27 0 0028.39 1.96z" />
    <path fill="#FFF"
        d="M64 5.31C31.64 5.31 5.31 31.64 5.31 64S31.64 122.69 64 122.69 122.69 96.36 122.69 64 96.36 5.31 64 5.31zm13 111.7c-2.22-4.3-4.27-8.16-5.62-10.85-4.23-8.47-8.46-20.38-6.54-28.07.36-1.4.36-7.11 1.53-7.87 8.97-5.87 8.33-.2 11.94-2.83 1.86-1.35 3.34-2.99 3.99-5.23 2.3-8.09-3.2-22.15-9.37-28.31-2.01-2.01-5.08-3.26-8.55-3.93-1.33-1.83-3.49-3.58-6.54-5.22a30.76 30.76 0 00-19.49-3.07c1.07.11 3.48 2.28 4.45 2.42-1.47 1-5.39.87-5.37 3.09 5.25-.53 10.99.3 15.83 2.45-3.84.43-7.42 1.39-9.93 2.71C36 36.16 34.08 43.85 36 54.62c1.87 10.45 9.88 47.65 12.81 61.8A54.68 54.68 0 019.41 64 54.65 54.65 0 0164 9.41 54.65 54.65 0 01118.59 64 54.68 54.68 0 0177 117.01z" />
    <circle fill="#2D4F8E" cx="48.5" cy="55.17" r="4.04" />
    <circle fill="#FFF" cx="50.3" cy="53.82" r="1.05" />
    <circle fill="#2D4F8E" cx="75.51" cy="52.77" r="3.47" />
    <circle fill="#FFF" cx="77.06" cy="51.62" r=".9" />
    <path fill="#2D4F8E"
        d="M49.66 43.47s-3.05-1.39-6.01.48c-2.95 1.86-2.85 3.75-2.85 3.75s-1.57-3.5 2.61-5.22c4.21-1.7 6.25.99 6.25.99zM77.6 43.19s-2.19-1.25-3.89-1.23c-3.49.04-4.44 1.58-4.44 1.58s.59-3.67 5.05-2.93a4.44 4.44 0 013.28 2.58z" />
    <path fill="#FDD20A"
        d="M60.87 70.75c.41-2.45 6.72-7.07 11.2-7.36 4.48-.28 5.87-.21 9.6-1.11 3.74-.89 13.38-3.29 16.03-4.52 2.67-1.23 13.97.61 6.01 5.06-3.45 1.93-12.74 5.47-19.38 7.46-6.63 1.98-10.66-1.9-12.86 1.37-1.75 2.59-.35 6.14 7.57 6.88 10.71.99 20.97-4.82 22.1-1.73 1.13 3.09-9.19 6.93-15.49 7.06-6.29.12-18.97-4.16-20.86-5.48-1.91-1.32-4.44-4.42-3.92-7.63z" />
    <path fill="#65BC46"
        d="M84.02 95.29c-1.8-.41-8.71 4.47-11.42 6.45-.11-.44-.2-.8-.29-1-.44-1.09-7.09-.47-8.85 1.18-4.2-2.09-12.84-6.08-13.02-3.63-.26 3.26 0 16.54 1.75 17.55 1.28.74 8.31-3.07 12.01-5.18l.34.11c2.25.51 6.51 0 8.02-1 .15-.1.27-.27.36-.47 3.41 1.32 10.36 3.86 11.85 3.31 2-.78 1.5-16.81-.75-17.32z" />
    <path fill="#43A244"
        d="M64.53 110.76c-2.25-.5-1.49-2.75-1.49-8.01l-.01-.01.01-.04c-.59.35-.97.76-.97 1.22h.01c0 5.26-.76 7.52 1.49 8.02 2.26.5 6.52 0 8.03-1 .25-.17.42-.5.53-.94-1.76.84-5.53 1.23-7.6.76z" />
</svg>