<svg fill="none" height="32" viewBox="0 0 32 32" width="32" xmlns="http://www.w3.org/2000/svg" xmlns:xlink="http://www.w3.org/1999/xlink"><linearGradient id="a" gradientUnits="userSpaceOnUse" x1="17.3182" x2="19.4002" y1="10.5101" y2="10.5101"><stop offset=".01" stop-color="#6176b9"/><stop offset=".69" stop-color="#394a9f"/></linearGradient><clipPath id="b"><path d="m0 0h31.9961v31.9961h-31.9961z"/></clipPath><g clip-path="url(#b)"><path clip-rule="evenodd" d="m15.998 31.9961c8.8355 0 15.9981-7.1626 15.9981-15.9981 0-8.83542-7.1626-15.998-15.9981-15.998-8.83542 0-15.998 7.16258-15.998 15.998 0 8.8355 7.16258 15.9981 15.998 15.9981z" fill="#de5833" fill-rule="evenodd"/><path d="m18.0202 26.8861c.3019.5889.6963 1.3368 1.1226 2.1572 0 0-.4866 1.2067-3.674 1.1755-3.1876-.0313-3.312-1.3645-3.312-1.3645-.7718-3.7095-2.69369-12.6436-3.15076-15.1945-.47304-2.6566-.01277-4.56313 1.75606-5.53506.0232-.01376.0474-.02646.0717-.03915l.0006-.00032c.5676-.29874 1.3574-.52492 2.2153-.64335.0871-.01175.1764-.02347.2657-.03307-1.2097-.53879-2.6437-.74684-3.9554-.61348-.00212-.22829.16266-.3574.38268-.44702.24344-.10029.55592-.15255.78452-.24004.0659-.0256.1243-.05335.1732-.08642-.2413-.03522-.83866-.574-1.1076-.60492h-.00425c1.66255-.28487 3.37395-.01495 4.86955.76815.7622.40863 1.3011.84497 1.6339 1.30374.8684.16431 1.637.47905 2.1376.98048 1.5393 1.53636 2.9126 5.04536 2.3429 7.06706l-.0167.0039c-.0489.0113-.0945.0218-.1374.0324-.9334.224-1.2799.2081-2.3992.2774-.8908.0565-2.0697.798-2.5672 1.4072-.1275.1579-.2104.3062-.2317.4321-.0765.4673.1063.925.3667 1.2909.1839.2593.4082.4727.6059.6092-.305 1.3336.1032 3.1527.7303 4.8405-.2413.0374-.4826.095-.6824.1707-.1584.0587-.2902.1302-.3763.2102-1.0513-.5238-3.2071-1.5192-3.2538-.9047-.0638.8162 0 4.1342.4369 4.385.2816.1599 1.6603-.5475 2.6202-1.0797.0574.049.1318.083.2275.1045.3923.0865 1.0247.0533 1.502-.0597.2094-.0493.3891-.1143.5049-.191.0521-.0352.0904-.0972.118-.1792z" fill="#fff"/><g clip-rule="evenodd" fill-rule="evenodd"><path d="m10.6992 6.02163c-.0478.03307-.1074.06082-.1733.08642-.1374-.05597-.2984-.12541-.4624-.19613-.39563-.17061-.80854-.34866-.94833-.36299.0805-.01178.15057-.03589.22522-.06157.07424-.02555.153-.05265.25106-.07073.13953.0166.36747.1696.58825.31778.2048.13746.4034.27078.5195.28722zm-1.63927 1.09252c1.11837-.11417 2.77477-.03522 3.98887.3265l.0024-.00032c.0874-.01162.1749-.02324.2634-.03275-1.2109-.53885-2.6451-.74693-3.95592-.61353-.00212-.22835.16265-.35747.38273-.4471-.09995.01603-.19455.04163-.28173.07898-.23177.10775-.40505.5015-.39975.68822zm-.64205 6.99445c.33096 1.8629 1.44813 7.144 2.32722 11.2994v.0004c.2532 1.1966.4866 2.2999.6758 3.2014.2413.0874.4868.1684.7345.2432-.2181-1.0482-.528-2.5135-.8707-4.1341l-.0001-.0006c-.8702-4.1146-1.95202-9.2299-2.27994-11.0599-.47304-2.6566-.01275-4.56312 1.75604-5.53505-.0712.02667-.136.05547-.1945.08642-1.82303.96021-2.62773 3.20703-2.14832 5.89883z" fill="#d5d7d8"/><path d="m18.8778 14.0608c-.4784 0-.8664-.3884-.8664-.8664s.388-.8664.8664-.8664.8665.3884.8665.8664-.3881.8664-.8665.8664zm.6103-1.1534c0-.1238-.101-.2241-.2244-.2241-.1233 0-.2232.1003-.2243.2241 0 .1237.101.224.2243.224.1244 0 .2244-.1003.2244-.224zm-6.3503.8866c0 .558-.4518 1.0104-1.01 1.0104-.5571 0-1.0099-.4524-1.0099-1.0104 0-.5581.4528-1.0105 1.0099-1.0105s1.01.4524 1.01 1.0105zm-.2977-.3351c0-.144-.1169-.2614-.2615-.2614-.1435 0-.2605.1163-.2615.2614 0 .1441.1169.2614.2615.2614s.2615-.1173.2615-.2614z" fill="#2d4f8e"/><path d="m17.3183 10.8888s.1467-.91656 1.2609-.733c.3635.0661.6708.3072.8207.6444 0 0-.5465-.3115-.9728-.3062-.8717.0107-1.1088.3948-1.1088.3948zm-4.899-.0182s-.7623-.3468-1.5012.1195c-.7388.4641-.7112.939-.7112.939s-.39229-.875.6528-1.3039c1.0482-.4269 1.5596.2454 1.5596.2454z" fill="url(#a)"/></g><path d="m21.413 20.9623c1.5732-.032 4.1531-.9911 3.8704-1.7646-.2829-.7735-2.8468.6796-5.5234.4321-1.9804-.1835-2.3301-1.0712-1.8921-1.7199.5517-.8151 1.5573.1547 3.2145-.3414 1.6604-.4961 3.9821-1.3805 4.843-1.8628 1.991-1.1117-.8344-1.5704-1.501-1.2632-.6303.2934-2.8297.8482-3.8523 1.0936-.0552.0128-.1063.0256-.1541.0363-.9333.224-1.2798.208-2.3992.2774-.8897.0576-2.0696.798-2.5671 1.4072-.1286.1568-.2115.3062-.2317.4321-.0766.4673.1063.925.3667 1.2909.185.2593.4082.4727.6059.6092.0021.0011.0032.0021.0053.0032.4752.3297 3.6418 1.3987 5.2151 1.3699z" fill="#fdd20a"/><path d="m15.5218 25.3099h-.0021c0-.1162.0925-.2187.2403-.3062v.0127l.0021.0023c0 1.2418-.169 1.8115.287 1.9767.0266.0098.0553.0183.0861.0248.2997.0682.742.064 1.147.0062.2753-.0382.5325-.1012.7175-.1824.0127-.0053.0255-.0118.0372-.017.0382-.018.0723-.0373.1031-.0575.0383-.0258.068-.0653.0935-.1165.8547.3309 2.5852.9646 2.9583.8259.5007-.192.3763-4.1982-.187-4.3263-.4508-.1003-2.1739 1.1139-2.8552 1.611-.0266-.1109-.0511-.1984-.0723-.2486-.0606-.1525-.607-.1717-1.1534-.0864-.2413.0374-.4826.095-.6824.1707-.1584.0598-.2913.1302-.3763.2102-1.0524-.5238-3.2081-1.5182-3.2538-.9047-.0638.8161 0 4.1343.4369 4.385.2806.16 1.6604-.5474 2.6202-1.0799-.2774-.2357-.1467-.8096-.1467-1.9z" fill="#65bc46"/><path d="m17.999 26.8454c-.184.081-.4423.1441-.7177.1826-.405.0565-.8473.0617-1.1471-.0065-.0308-.0065-.0595-.015-.0861-.0245-.4561-.1655-.287-.7353-.287-1.9773l-.0022-.0022c0-.0043 0-.0086 0-.0128-.1477.0875-.2402.19-.2402.3062h.0021c0 1.0895-.1297 1.6646.1457 1.9006.0574.049.1307.0832.2275.1045.3923.0875 1.0259.0532 1.5022-.0598.2094-.049.3891-.1142.5049-.191.0511-.0342.0904-.097.1181-.1792.0063-.0183.0116-.0373.017-.0565-.0117.0052-.0245.0104-.0372.0159z" fill="#43a244"/><path clip-rule="evenodd" d="m15.998 30.6541c8.0943 0 14.6561-6.5617 14.6561-14.656 0-8.09436-6.5618-14.65609-14.6561-14.65609-8.09429 0-14.65602 6.56173-14.65602 14.65609 0 8.0943 6.56173 14.656 14.65602 14.656zm0-1.2517c7.403 0 13.4043-6.0013 13.4043-13.4043 0-7.40303-6.0013-13.40435-13.4043-13.40435-7.40299 0-13.40431 6.00132-13.40431 13.40435 0 7.403 6.00132 13.4043 13.40431 13.4043z" fill="#fff" fill-rule="evenodd"/></g></svg>