<svg fill="none" viewBox="0 0 120 120" xmlns="http://www.w3.org/2000/svg" xmlns:xlink="http://www.w3.org/1999/xlink"><clipPath id="a"><path d="m0 0h120v120h-120z"/></clipPath><g clip-path="url(#a)"><path clip-rule="evenodd" d="m60 120c33.137 0 60-26.863 60-60s-26.863-60-60-60-60 26.863-60 60 26.863 60 60 60z" fill="#de5833" fill-rule="evenodd"/><path clip-rule="evenodd" d="m68.438 104.766c0-.469.114-.576-1.376-3.546-3.96-7.93-7.94-19.11-6.13-26.32.33-1.31-3.73-48.51-6.6-50.03-3.19-1.7-7.114-4.397-10.704-4.997-1.822-.291-4.21-.153-6.077.098-.332.045-.346.641-.029.749 1.226.415 2.715 1.136 3.592 2.226.166.206-.057.531-.322.54-.827.031-2.327.378-4.306 2.059-.228.194-.038.555.256.497 4.253-.841 8.597-.427 11.157 1.9.166.15.079.422-.138.48-22.213 6.037-17.816 25.36-11.902 49.073 5.267 21.122 7.25 27.929 7.874 30.003.06.201.202.36.397.438 7.646 3.045 24.307 3.18 24.307-1.999v-1.171z" fill="#ddd" fill-rule="evenodd"/><path d="m71.484 109.219c-2.695 1.054-7.968 1.523-11.015 1.523-4.467 0-10.899-.703-13.242-1.758-1.448-4.454-5.78-18.263-10.057-35.798l-.42-1.713-.003-.014c-5.085-20.772-9.239-37.737 13.526-43.067.208-.049.31-.297.172-.46-2.612-3.1-7.505-4.115-13.692-1.98-.254.087-.474-.169-.317-.386 1.214-1.672 3.584-2.958 4.755-3.522.242-.116.227-.47-.03-.55a26.04 26.04 0 0 0 -3.535-.844c-.346-.056-.378-.65-.03-.697 8.772-1.18 17.93 1.453 22.527 7.243a.305.305 0 0 0 .174.107c16.83 3.614 18.036 30.22 16.097 31.432-.383.239-1.608.102-3.224-.079-6.548-.733-19.516-2.184-8.813 17.763.105.197-.035.458-.255.492-6.036.939 1.698 19.85 7.382 32.308z" fill="#fff"/><path d="m79.013 85.03c-1.282-.594-6.208 2.939-9.478 5.65-.683-.966-1.972-1.669-4.878-1.163-2.544.442-3.949 1.055-4.575 2.113-4.015-1.523-10.77-3.872-12.402-1.603-1.784 2.48.446 14.213 2.815 15.736 1.237.796 7.154-3.007 10.243-5.63.499.702 1.301 1.104 2.951 1.066 2.495-.058 6.543-.638 7.17-1.8.039-.071.072-.155.1-.25 3.175 1.187 8.765 2.444 10.013 2.256 3.254-.489-.453-15.678-1.96-16.376z" fill="#3ca82b"/><path d="m69.835 91.028c.134.24.243.494.335.751.452 1.266 1.19 5.294.632 6.29-.558.994-4.18 1.475-6.415 1.513-2.235.039-2.738-.778-3.191-2.045-.362-1.013-.54-3.394-.536-4.758-.092-2.022.647-2.733 4.063-3.286 2.528-.41 3.864.067 4.636.88 3.588-2.678 9.576-6.458 10.16-5.767 2.912 3.445 3.28 11.645 2.65 14.944-.207 1.078-9.85-1.069-9.85-2.232 0-4.83-1.252-6.155-2.484-6.29zm-21.122-1.508c.79-1.25 7.194.304 10.71 1.869 0 0-.723 3.273.427 7.128.336 1.128-8.088 6.148-9.187 5.285-1.271-.999-3.61-11.655-1.95-14.282z" fill="#4cba3c"/><path clip-rule="evenodd" d="m51.815 64.131c.518-2.253 2.931-6.499 11.55-6.396 4.358-.018 9.77-.002 13.36-.41a48.043 48.043 0 0 0 11.93-2.9c3.731-1.424 5.055-1.107 5.52-.255.51.936-.091 2.552-1.395 4.04-2.49 2.84-6.967 5.043-14.873 5.696-7.907.654-13.145-1.467-15.4 1.986-.972 1.489-.22 4.999 7.426 6.104 10.332 1.491 18.817-1.797 19.866.19 1.048 1.985-4.991 6.025-15.34 6.11-10.349.084-16.813-3.624-19.105-5.467-2.908-2.338-4.21-5.749-3.54-8.698z" fill="#fc3" fill-rule="evenodd"/><g fill="#14307e" opacity=".8"><path d="m64.994 39.494c.577-.945 1.857-1.675 3.952-1.675s3.08.834 3.763 1.763c.138.19-.072.412-.287.319a52.89 52.89 0 0 1 -.158-.069c-.766-.334-1.706-.745-3.318-.768-1.724-.025-2.81.407-3.495.78-.23.125-.594-.126-.457-.35zm-23.584 1.209c2.034-.85 3.633-.74 4.763-.473.238.057.403-.2.213-.353-.877-.707-2.84-1.586-5.401-.63-2.284.85-3.36 2.62-3.367 3.784-.002.274.563.297.708.065.395-.627 1.05-1.543 3.084-2.393z"/><path clip-rule="evenodd" d="m70.725 52.425a3.252 3.252 0 0 1 -3.257-3.245 3.252 3.252 0 0 1 3.257-3.245 3.252 3.252 0 0 1 3.257 3.245 3.252 3.252 0 0 1 -3.257 3.245zm2.294-4.32a.842.842 0 0 0 -1.686 0 .843.843 0 0 0 1.686 0zm-23.872 3.321a3.79 3.79 0 0 1 -3.797 3.784 3.792 3.792 0 0 1 -3.796-3.784 3.792 3.792 0 0 1 3.796-3.785 3.792 3.792 0 0 1 3.797 3.785zm-1.12-1.255a.981.981 0 0 0 -1.965 0 .982.982 0 0 0 1.966-.001z" fill-rule="evenodd"/></g><path clip-rule="evenodd" d="m60 110.391c27.83 0 50.391-22.561 50.391-50.391s-22.561-50.39-50.391-50.39-50.39 22.56-50.39 50.39 22.56 50.391 50.39 50.391zm0 4.687c30.419 0 55.078-24.66 55.078-55.078 0-30.419-24.66-55.078-55.078-55.078-30.419 0-55.078 24.66-55.078 55.078 0 30.419 24.66 55.078 55.078 55.078z" fill="#fff" fill-rule="evenodd"/></g></svg>